<?xml version="1.0" encoding="utf-8"?>
<!-- Generator: Adobe Illustrator 22.0.1, SVG Export Plug-In . SVG Version: 6.00 Build 0)  -->
<svg version="1.1" xmlns="http://www.w3.org/2000/svg" xmlns:xlink="http://www.w3.org/1999/xlink" x="0px" y="0px"
	 viewBox="0 0 1024 792.1" enable-background="new 0 0 1024 792.1" xml:space="preserve">
<g id="Фон" display="none">
	<rect y="-16" display="inline" fill="#F97C00" width="1024" height="1024"/>
</g>
<g id="Рабочая_область" display="none">
	<circle display="inline" fill="#F97C00" cx="512" cy="496" r="512"/>
</g>
<g id="Лента">
	<g>
		<path fill="#979E98" stroke="#000000" stroke-width="6" stroke-miterlimit="10" d="M964.5,626.5h-905c-20.9,0-38-17.1-38-38v0
			c0-20.9,17.1-38,38-38h905c20.9,0,38,17.1,38,38v0C1002.5,609.4,985.4,626.5,964.5,626.5z"/>
		<circle cx="193" cy="588.5" r="29.5"/>
		<circle cx="623" cy="588.5" r="29.5"/>
		<circle cx="515.5" cy="588.5" r="29.5"/>
		<circle cx="85.5" cy="588.5" r="29.5"/>
		<circle cx="300.5" cy="588.5" r="29.5"/>
		<circle cx="408" cy="588.5" r="29.5"/>
		<circle cx="730.5" cy="588.5" r="29.5"/>
		<circle cx="838" cy="588.5" r="29.5"/>
		<circle cx="945.5" cy="588.5" r="29.5"/>
	</g>
	<g>
		<path stroke="#020202" stroke-width="0.8511" stroke-miterlimit="10" d="M209.7,759L209.7,759c-3.6,0-6.5-2.9-6.5-6.5v-121
			c0-3.6,2.9-6.5,6.5-6.5h0c3.6,0,6.5,2.9,6.5,6.5v121C216.2,756.1,213.3,759,209.7,759z"/>
		<path stroke="#020202" stroke-width="0.8511" stroke-miterlimit="10" d="M359.8,759L359.8,759c-3.6,0-6.5-2.9-6.5-6.5v-121
			c0-3.6,2.9-6.5,6.5-6.5h0c3.6,0,6.5,2.9,6.5,6.5v121C366.3,756.1,363.4,759,359.8,759z"/>
		<path stroke="#020202" stroke-width="0.8511" stroke-miterlimit="10" d="M510,759L510,759c-3.6,0-6.5-2.9-6.5-6.5v-121
			c0-3.6,2.9-6.5,6.5-6.5l0,0c3.6,0,6.5,2.9,6.5,6.5v121C516.5,756.1,513.6,759,510,759z"/>
		<path stroke="#020202" stroke-width="0.8511" stroke-miterlimit="10" d="M660.2,759L660.2,759c-3.6,0-6.5-2.9-6.5-6.5v-121
			c0-3.6,2.9-6.5,6.5-6.5l0,0c3.6,0,6.5,2.9,6.5,6.5v121C666.7,756.1,663.8,759,660.2,759z"/>
		<path stroke="#020202" stroke-width="0.8511" stroke-miterlimit="10" d="M810.3,759L810.3,759c-3.6,0-6.5-2.9-6.5-6.5v-121
			c0-3.6,2.9-6.5,6.5-6.5l0,0c3.6,0,6.5,2.9,6.5,6.5v121C816.8,756.1,813.9,759,810.3,759z"/>
		<path stroke="#020202" stroke-width="0.8511" stroke-miterlimit="10" d="M960.5,759L960.5,759c-3.6,0-6.5-2.9-6.5-6.5v-121
			c0-3.6,2.9-6.5,6.5-6.5l0,0c3.6,0,6.5,2.9,6.5,6.5v121C967,756.1,964.1,759,960.5,759z"/>
		<path stroke="#020202" stroke-width="0.8511" stroke-miterlimit="10" d="M59.5,759L59.5,759c-3.6,0-6.5-2.9-6.5-6.5v-121
			c0-3.6,2.9-6.5,6.5-6.5h0c3.6,0,6.5,2.9,6.5,6.5v121C66,756.1,63.1,759,59.5,759z"/>
	</g>
</g>
<g id="YouTube">
	<g>
		<path fill="#F2F4F4" stroke="#020202" stroke-width="5.5048" stroke-miterlimit="10" d="M420.1,538.5H198c-7.5,0-13.5-6-13.5-13.5
			V407.5c0-7.5,6-13.5,13.5-13.5h222.1c7.5,0,13.5,6,13.5,13.5V525C433.6,532.4,427.5,538.5,420.1,538.5z"/>
		<rect x="200.3" y="405.7" fill="#5F605F" width="16.5" height="2.8"/>
		<rect x="200.3" y="411.2" fill="#5F605F" width="16.5" height="2.8"/>
		<rect x="200.3" y="416.7" fill="#5F605F" width="16.5" height="2.8"/>
		<path fill="#DB2728" d="M246.2,420.8h-18.9c-1.2,0-2.3-1-2.3-2.3v-12c0-1.2,1-2.3,2.3-2.3h18.9c1.2,0,2.3,1,2.3,2.3v12
			C248.5,419.8,247.5,420.8,246.2,420.8z"/>
		<polygon fill="#F9F9F9" points="233.4,408.4 241.1,412.3 233.4,416.2 		"/>
		<path fill="#BAB5B5" d="M389.4,419.4H264.5c-1.2,0-2.3-1-2.3-2.3v-9.3c0-1.2,1-2.3,2.3-2.3h124.9c1.2,0,2.3,1,2.3,2.3v9.3
			C391.6,418.4,390.6,419.4,389.4,419.4z"/>
		<path fill="#938F8F" d="M389.4,419.4h-17.6c-1.2,0-2.2-1-2.2-2.2v-9.4c0-1.2,1-2.2,2.2-2.2h17.6c1.2,0,2.2,1,2.2,2.2v9.4
			C391.6,418.5,390.6,419.4,389.4,419.4z"/>
		<path fill="#FFFFFF" stroke="#020202" stroke-width="2.7524" stroke-miterlimit="10" d="M367.5,517.2H227.2
			c-2.7,0-4.8-2.2-4.8-4.8v-77c0-2.7,2.2-4.8,4.8-4.8h140.3c2.7,0,4.8,2.2,4.8,4.8v77C372.4,515,370.2,517.2,367.5,517.2z"/>
		<path fill="#A9D6EA" stroke="#020202" stroke-width="1.3131" stroke-miterlimit="10" d="M421.7,453.9h-32.6
			c-0.9,0-1.6-0.7-1.6-1.6v-17.5c0-0.9,0.7-1.6,1.6-1.6h32.6c0.9,0,1.6,0.7,1.6,1.6v17.5C423.3,453.1,422.6,453.9,421.7,453.9z"/>
		<path fill="#538EA0" stroke="#020202" stroke-width="1.3131" stroke-miterlimit="10" d="M421.4,482.8h-32.1c-1,0-1.8-0.8-1.8-1.8
			v-17c0-1,0.8-1.8,1.8-1.8h32.1c1,0,1.8,0.8,1.8,1.8v17C423.3,481.9,422.4,482.8,421.4,482.8z"/>
		<path fill="#A9D6EA" stroke="#020202" stroke-width="1.3131" stroke-miterlimit="10" d="M421.3,511.7h-31.8c-1.1,0-2-0.9-2-2V493
			c0-1.1,0.9-2,2-2h31.8c1.1,0,2,0.9,2,2v16.7C423.3,510.8,422.4,511.7,421.3,511.7z"/>
		<path fill="#D095EF" stroke="#020202" stroke-width="1.4245" stroke-miterlimit="10" d="M369,517.2H227.1c-2.2,0-4.1-1.8-4.1-4.1
			v-4.4c0-1,0.8-1.9,1.9-1.9h146.3c1,0,1.9,0.8,1.9,1.9v4.4C373,515.3,371.2,517.2,369,517.2z"/>
		<polygon fill="#F9F9F9" points="229.2,509.8 234.7,512.5 229.2,515.3 		"/>
		<path fill="#FFFFFF" d="M363.1,514.4H241.3c-0.6,0-1-0.5-1-1v-2c0-0.6,0.5-1,1-1h121.8c0.6,0,1,0.5,1,1v2
			C364.1,513.9,363.6,514.4,363.1,514.4z"/>
		<circle fill="#DB2728" cx="274" cy="512.3" r="3.4"/>
		<path fill="#DB2728" d="M272.3,510.3h-31.2c-0.5,0-0.9,0.4-0.9,0.9v2.3c0,0.5,0.4,0.9,0.9,0.9h31.2c0.5,0,0.9-0.4,0.9-0.9v-2.3
			C273.3,510.7,272.9,510.3,272.3,510.3z"/>
		<path fill="#DB2728" d="M322.9,489.6h-50.1c-1.2,0-2.3-1-2.3-2.3v-34c0-1.2,1-2.3,2.3-2.3h50.1c1.2,0,2.3,1,2.3,2.3v34
			C325.1,488.6,324.1,489.6,322.9,489.6z"/>
		<polygon fill="#F9F9F9" points="289.8,460.7 307.8,469.8 289.8,478.8 		"/>
	</g>
</g>
<g id="Узел_с_роботом">
	<path fill="#667C66" stroke="#020202" stroke-width="9.8186" stroke-miterlimit="10" d="M533.6,29h-45.8c-39.5,0-71.5,32-71.5,71.5
		V224h188.8V100.5C605.1,61,573,29,533.6,29z"/>
	
		<rect x="450.8" y="103.4" fill="none" stroke="#020202" stroke-width="9.6363" stroke-miterlimit="10" width="119.7" height="42.5"/>
	<line fill="none" stroke="#020202" stroke-width="12.8695" stroke-miterlimit="10" x1="418" y1="178.9" x2="603.3" y2="178.9"/>
	<path fill="#667C66" stroke="#020202" stroke-width="9.8186" stroke-miterlimit="10" d="M318.5,229.1l385.3-1.3
		c1.6,0,2.9,1.3,2.9,2.9c-0.1,15.6-5.5,89-94,93.6c-99.1,5.1-83.7,6.4-136.4,3.9c-52.3-2.5-152.5,8.8-160.7-96
		C315.5,230.5,316.9,229.1,318.5,229.1z"/>
	<path fill="#667C66" stroke="#020202" stroke-width="14.4215" stroke-miterlimit="10" d="M608.9,228.5H412.4
		c-25.7,0-46.5,20.8-46.5,46.5v350.5h289.6V275C655.4,249.3,634.6,228.5,608.9,228.5z"/>
	<circle fill="#0D8E0D" stroke="#020202" stroke-width="4.3644" stroke-miterlimit="10" cx="481.5" cy="290.9" r="16.7"/>
	<circle fill="#F40C0C" stroke="#020202" stroke-width="4.3644" stroke-miterlimit="10" cx="410.7" cy="292.2" r="16.7"/>
	<path fill="#F3FF00" stroke="#020202" stroke-width="14.1564" stroke-miterlimit="10" d="M129.8,427.7l-18.6,20.7l17.8,59.2l23.7-6
		l-14.3-50.8l18.3-21.9l21.2-5.4l29.1,9.8l13,51.1l22.4-5.7l-9.7-58.6l-26.9-11.7c0,0-20.1-26.7-42.6-21S133.8,401.5,129.8,427.7z"
		/>
	<rect x="480.8" y="250.3" fill="#17C117" width="1.9" height="19.9"/>
	
		<rect x="504" y="259.4" transform="matrix(0.7071 0.7071 -0.7071 0.7071 338.3429 -278.1824)" fill="#17C117" width="1.9" height="19.9"/>
	
		<rect x="457.7" y="258.1" transform="matrix(0.7071 -0.7071 0.7071 0.7071 -55.1996 402.812)" fill="#17C117" width="1.9" height="19.9"/>
	
		<rect x="448.7" y="279.9" transform="matrix(6.123234e-17 -1 1 6.123234e-17 159.7127 739.5446)" fill="#17C117" width="1.9" height="19.9"/>
	
		<rect x="459" y="303.1" transform="matrix(-0.7071 -0.7071 0.7071 -0.7071 563.7581 859.6782)" fill="#17C117" width="1.9" height="19.9"/>
	
		<rect x="511.7" y="279.9" transform="matrix(-1.836970e-16 1 -1 -1.836970e-16 802.605 -222.7731)" fill="#17C117" width="1.9" height="19.9"/>
	<rect x="480.8" y="310.8" fill="#17C117" width="1.9" height="19.9"/>
	
		<rect x="502.7" y="303.1" transform="matrix(0.7071 -0.7071 0.7071 0.7071 -73.8571 447.8551)" fill="#17C117" width="1.9" height="19.9"/>
	<path fill="#F3FF00" stroke="#020202" stroke-width="17.8984" stroke-miterlimit="10" d="M311.1,253.6c0,0-49.9,14.8-75.4,30.9
		c-25.5,16.1-25.1,14.9-45.1,35c-20,20.1-23.7,24.6-34.5,44.2c-10.8,19.6-13.8,29-13.8,29l28.4,0.1l14.3,0.9c0,0,17-22.4,36.6-46
		c5-6,14.4-18.5,21.2-24c33.6-27.5,78.6-38.6,78.6-38.6L311.1,253.6z"/>
	<polygon stroke="#020202" stroke-width="1.3868" stroke-miterlimit="10" points="294.4,299.7 248.9,282.5 260.1,275.5 305.6,292.8 
			"/>
	<polygon stroke="#020202" stroke-width="1.3276" stroke-miterlimit="10" points="235.2,339.8 179.6,321.4 187.4,315.6 243,334 	"/>
	<path fill="#F3FF00" stroke="#020202" stroke-width="14.1564" stroke-miterlimit="10" d="M778.5,449.4l21.2,18.1l-9.9,61l-24.3-2.9
		l7.5-52.2l-21-19.4l-21.7-2.6L702.7,465l-6.2,52.4l-23-2.7l1.9-59.4l25.1-15.1c0,0,16.4-29.1,39.4-26.4S771.2,423.9,778.5,449.4z"
		/>
	<path fill="#F3FF00" stroke="#020202" stroke-width="14.1564" stroke-miterlimit="10" d="M708.8,251.3c0,0,23.2,22.9,32.4,43.4
		c9.2,20.5,9.4,19.3,14.3,43.2c4.9,23.9,5.6,29.2,5.6,51.2s-1.3,32.3-1.3,32.3l-23.3-7.5l-11.2,3c0,0,6.1-40.3-4.1-73.9
		s-27.8-60.3-27.8-60.3L708.8,251.3z"/>
	
		<rect x="699.5" y="288.7" transform="matrix(-0.9002 0.4356 -0.4356 -0.9002 1496.2417 244.8818)" stroke="#020202" stroke-width="1.2688" stroke-miterlimit="10" width="41.2" height="10.4"/>
	
		<rect x="717.7" y="342.4" transform="matrix(-0.9668 0.2556 -0.2556 -0.9668 1540.918 494.8252)" stroke="#020202" stroke-width="1.2661" stroke-miterlimit="10" width="41.2" height="10.3"/>
	<path fill="#00E0F7" d="M464,126c0.4-2.8,12.9-10,18-10c2,0,6.2,0.7,9,2c3.5,1.6,5.9,4.3,7,6c2,3,3,8,0,7s-9-8-14-8s-8.5,2.6-12,5
		C469,130,463,134,464,126z"/>
	<path fill="#00E0F7" d="M557.8,126c-0.4-2.8-12.9-10-18-10c-2,0-6.2,0.7-9,2c-3.5,1.6-5.9,4.3-7,6c-2,3-3,8,0,7s9-8,14-8
		s8.5,2.6,12,5C552.8,130,558.8,134,557.8,126z"/>
</g>
<g id="Слой_8">
	<g>
		<path fill="#D35E31" stroke="#000000" stroke-width="3" stroke-miterlimit="10" d="M470.5,508.4h-11v-83.2c0-1.2,0.4-4.6,1.2-10.3
			L439.2,496h-2.4l-21.5-81.2c0.8,5.8,1.2,9.2,1.2,10.3v83.2h-11V377h10.8l21.3,85.5c0.1,0.4,0.2,1.7,0.3,3.8c0-0.8,0.1-2.1,0.3-3.8
			l21.3-85.5h10.8V508.4z"/>
		<path fill="#D35E31" stroke="#000000" stroke-width="3" stroke-miterlimit="10" d="M545.7,484.6c0,6.9-2.3,12.6-6.8,17.1
			c-4.6,4.5-10.3,6.7-17.3,6.7h-30.1V377h30.1c7,0,12.8,2.2,17.3,6.7s6.8,10.1,6.8,17.1V484.6z M534,483.5v-81.7
			c0-4.3-1.4-7.8-4.1-10.5c-2.7-2.7-6.2-4-10.5-4h-16.2v110.8h15.5c4.5,0,8.2-1.3,11-3.9C532.6,491.6,534,488,534,483.5z"/>
		<path fill="#D35E31" stroke="#000000" stroke-width="3" stroke-miterlimit="10" d="M617.4,499.1c0,2.7-0.9,5-2.6,6.7
			c-1.7,1.7-3.9,2.6-6.7,2.6h-33.1c-2.7,0-5-0.9-6.8-2.6c-1.8-1.7-2.6-4-2.6-6.7v-33.3h11.7v32.3h28.4v-31.3l-36.3-43.8
			c-2.5-3-3.8-6.4-3.8-10v-26.6c0-2.7,0.9-5,2.6-6.7c1.8-1.7,4-2.6,6.8-2.6h33.1c2.7,0,5,0.9,6.7,2.6c1.7,1.7,2.6,4,2.6,6.7v30.6
			h-11.7v-29.6h-28.4V415l36.4,43.8c2.4,2.9,3.6,6.2,3.6,9.8V499.1z"/>
	</g>
</g>
<g id="Слой_7">
	<path fill="#38D0E5" stroke="#000000" stroke-width="10.9385" stroke-miterlimit="10" d="M993.3,364.1v178.2c0,0.4-0.3,0.8-0.8,0.8
		H823.9c-0.4,0-0.8-0.3-0.8-0.8V306.8c0-0.4,0.3-0.8,0.8-0.8h117.7v0.1l50.5,56.4l0.9,1C993.3,363.7,993.3,363.9,993.3,364.1z"/>
	<path fill="none" stroke="#000000" stroke-width="10.9385" stroke-miterlimit="10" d="M992.5,363.1h-50c-0.4,0-0.8-0.4-0.8-0.8
		v-55.4c0-0.7,0.9-1.1,1.4-0.5l50,55.4C993.6,362.3,993.2,363.1,992.5,363.1z"/>
	<polygon fill="none" stroke="#000000" stroke-width="10.9385" stroke-miterlimit="10" points="941.6,306 941.7,306 941.7,306.1 	
		"/>
	<path stroke="#000000" stroke-width="4.1363" stroke-miterlimit="10" d="M1005.8,490.1H810.7c-8.2,0-14.9-6.7-14.9-14.9v-69.9
		c0-8.2,6.7-14.9,14.9-14.9h195.1c8.2,0,14.9,6.7,14.9,14.9v69.9C1020.7,483.5,1014,490.1,1005.8,490.1z"/>
	<g>
		<g>
			<path fill="#FFFFFF" d="M879.4,440.8c-0.5-9.3-1.1-20.7-1.1-29H878c-2.3,7.8-5.1,16.3-8.5,25.5l-11.9,32.6h-6.6l-10.9-32
				c-3.2-9.5-5.8-18.1-7.7-26.1h-0.2c-0.2,8.4-0.7,19.6-1.3,29.6l-1.8,28.8H821l4.7-67.2h11.1l11.4,32.5c2.8,8.2,5,15.6,6.8,22.6
				h0.3c1.8-6.8,4.1-14.2,7.1-22.6l12-32.5h11.1l4.2,67.2H881L879.4,440.8z"/>
			<path fill="#FFFFFF" d="M902.8,404c4.2-0.7,9.7-1.3,16.7-1.3c8.5,0,14.8,2,18.8,5.6c3.6,3.2,5.9,8.1,5.9,14.1
				c0,6.1-1.8,10.9-5.2,14.4c-4.6,4.9-12,7.4-20.5,7.4c-2.6,0-5-0.1-7-0.6v26.9h-8.7V404z M911.5,436.3c1.9,0.6,4.3,0.8,7.2,0.8
				c10.5,0,16.9-5.2,16.9-14.3c0-8.9-6.3-13.2-15.9-13.2c-3.8,0-6.7,0.4-8.2,0.7V436.3z"/>
			<path fill="#FFFFFF" d="M979.9,470.3v-17.7h-30.1v-5.7l28.9-41.4h9.5v40.3h9.1v6.8h-9.1v17.7H979.9z M979.9,445.9v-21.7
				c0-3.4,0.1-6.8,0.3-10.2l-0.3-0.1c-2,3.9-3.6,6.6-5.4,9.6l-15.8,22l0,0.2H979.9z"/>
		</g>
	</g>
</g>
</svg>
